<?xml version="1.0" standalone="no"?>
<!DOCTYPE svg PUBLIC "-//W3C//DTD SVG 20010904//EN"
 "http://www.w3.org/TR/2001/REC-SVG-20010904/DTD/svg10.dtd">
<svg version="1.0" xmlns="http://www.w3.org/2000/svg"
 width="1280.000000pt" height="1280.000000pt" viewBox="0 0 1280.000000 1280.000000"
 preserveAspectRatio="xMidYMid meet">

<g transform="translate(0.000000,1280.000000) scale(0.100000,-0.100000)"
fill="#000000" stroke="none">
<path d="M3110 8590 c0 -68 1 -70 25 -70 l25 0 0 -209 0 -210 -22 -3 c-20 -3
-24 -10 -28 -63 l-5 -60 -75 0 c-69 0 -74 2 -80 23 -11 47 -25 20 -25 -48 l0
-70 -100 0 c-123 0 -159 -15 -193 -81 -22 -43 -23 -49 -20 -336 3 -278 4 -293
24 -320 39 -52 79 -67 186 -71 l97 -4 3 -62 c3 -61 18 -79 28 -34 l6 23 227 3
c217 2 227 2 227 -17 0 -21 23 -45 33 -34 4 3 7 32 7 64 l0 57 128 4 c143 4
179 16 212 71 19 30 20 52 20 339 l0 306 -27 33 c-43 50 -76 59 -225 59 l-133
0 0 67 c0 66 -17 100 -23 48 -3 -24 -6 -25 -78 -25 l-74 0 0 49 c0 65 -7 81
-36 81 l-24 0 0 210 0 210 25 0 c29 0 38 24 33 91 l-3 44 -67 3 -68 3 0 -71z
m292 -680 l5 -30 -229 0 -228 0 0 23 c0 13 3 27 7 30 3 4 104 7 224 7 l217 0
4 -30z m311 -54 c18 -7 45 -28 60 -45 l27 -33 0 -294 c0 -326 -2 -337 -63
-374 -31 -19 -54 -20 -520 -20 -530 0 -521 -1 -566 56 -20 26 -21 38 -21 326
0 242 3 304 14 327 16 30 49 55 81 64 11 2 231 5 488 6 374 1 474 -2 500 -13z
m-303 -801 l0 -25 -227 2 c-207 3 -228 5 -231 20 -3 16 15 18 225 21 125 1
229 3 231 5 1 1 2 -9 2 -23z"/>
<path d="M2771 7813 c-19 -10 -44 -31 -55 -46 -20 -27 -21 -44 -24 -270 -3
-276 2 -307 57 -344 l34 -23 429 0 c467 0 465 0 504 57 17 26 19 49 19 288 0
286 -1 292 -62 332 -25 16 -65 18 -448 21 -385 2 -423 1 -454 -15z m905 -21
c42 -33 44 -51 44 -322 l0 -262 -34 -34 -34 -34 -436 0 -436 0 -37 34 -37 33
-4 206 c-6 272 1 332 40 369 l30 28 442 0 c403 0 443 -2 462 -18z"/>
<path d="M2940 7705 c0 -12 13 -15 55 -15 42 0 55 3 55 15 0 12 -13 15 -55 15
-42 0 -55 -3 -55 -15z"/>
<path d="M3090 7705 c0 -11 12 -15 50 -15 38 0 50 4 50 15 0 11 -12 15 -50 15
-38 0 -50 -4 -50 -15z"/>
<path d="M3230 7705 c0 -11 12 -15 50 -15 38 0 50 4 50 15 0 11 -12 15 -50 15
-38 0 -50 -4 -50 -15z"/>
<path d="M3370 7705 c0 -8 9 -15 20 -15 11 0 20 7 20 15 0 8 -9 15 -20 15 -11
0 -20 -7 -20 -15z"/>
<path d="M2876 7581 c-24 -26 -37 -87 -30 -138 15 -103 122 -128 160 -38 26
64 12 165 -26 185 -31 17 -85 12 -104 -9z m90 -22 c29 -32 26 -145 -4 -170
-50 -40 -86 7 -80 103 6 84 42 113 84 67z"/>
<path d="M3088 7588 c-35 -27 -50 -125 -28 -182 24 -65 115 -73 147 -13 24 46
22 140 -4 175 -23 31 -86 42 -115 20z m89 -38 c16 -31 17 -97 2 -138 -21 -62
-83 -42 -94 31 -7 48 9 123 28 131 25 10 52 0 64 -24z"/>
<path d="M3393 7579 c-18 -12 -33 -27 -33 -35 0 -18 10 -17 34 1 11 8 23 15
28 15 4 0 8 -45 8 -100 0 -82 3 -100 15 -100 13 0 15 20 15 120 0 135 -4 140
-67 99z"/>
<path d="M3261 7386 c-14 -17 -7 -36 14 -36 22 0 29 20 13 36 -13 13 -16 13
-27 0z"/>
<path d="M2927 7263 c-4 -3 -7 -12 -7 -20 0 -9 15 -13 50 -13 41 0 50 3 50 18
0 13 -10 18 -43 19 -24 2 -47 0 -50 -4z"/>
<path d="M3067 7263 c-4 -3 -7 -13 -7 -20 0 -11 13 -13 53 -11 38 2 52 7 52
18 0 11 -13 16 -46 18 -25 1 -49 -1 -52 -5z"/>
<path d="M3207 7264 c-4 -4 -7 -13 -7 -21 0 -9 16 -13 56 -13 47 0 55 3 52 18
-2 13 -15 18 -48 20 -25 2 -49 0 -53 -4z"/>
<path d="M3345 7261 c-8 -15 3 -31 21 -31 9 0 14 7 12 17 -4 20 -24 28 -33 14z"/>
<path d="M4345 7858 c-3 -7 -4 -659 -3 -1448 l3 -1435 330 0 330 0 3 1448 2
1447 -330 0 c-255 0 -332 -3 -335 -12z"/>
<path d="M5247 7864 c-8 -9 -10 -626 -1 -648 6 -14 105 -16 1026 -16 777 0
1030 -3 1062 -12 59 -18 111 -74 126 -138 16 -68 7 -151 -21 -198 -26 -42 -40
-54 -89 -79 -33 -17 -102 -18 -1070 -23 l-1035 -5 0 -885 0 -885 328 -3 c180
-1 328 -1 329 0 2 2 5 253 8 558 l5 555 288 0 c201 0 290 -3 295 -11 4 -6 41
-49 83 -95 71 -77 605 -672 687 -764 20 -22 79 -86 131 -143 l94 -103 1536 4
1536 3 100 26 c55 14 112 31 128 37 211 83 343 222 414 436 87 258 71 640 -36
865 -93 196 -258 322 -499 381 -83 21 -117 22 -782 28 -532 5 -702 10 -725 20
-95 40 -130 105 -123 228 6 102 32 146 102 179 l51 24 1031 0 c932 0 1032 2
1038 16 3 9 6 154 6 323 0 225 -3 310 -12 319 -14 14 -1954 16 -2128 2 -140
-11 -238 -34 -335 -78 -208 -95 -334 -257 -397 -512 -20 -83 -23 -119 -22
-290 0 -168 3 -209 23 -295 72 -306 241 -479 551 -563 l95 -26 695 -5 c640 -6
698 -7 735 -24 89 -40 118 -92 118 -211 -1 -71 -4 -89 -26 -123 -14 -22 -43
-51 -64 -64 l-38 -24 -1045 -5 c-575 -3 -1046 -6 -1047 -8 -2 -1 -3 -132 -3
-291 0 -280 -3 -321 -20 -321 -8 0 -206 217 -589 645 -64 71 -145 161 -181
200 -127 137 -182 205 -177 218 3 9 36 19 84 27 313 50 515 222 604 515 45
146 57 445 25 595 -41 193 -62 242 -154 366 -90 121 -214 196 -414 250 l-103
28 -1095 4 c-603 2 -1099 0 -1103 -4z"/>
<path d="M3150 6930 c0 -27 3 -30 30 -30 27 0 30 3 30 30 0 27 -3 30 -30 30
-27 0 -30 -3 -30 -30z"/>
<path d="M3150 6830 c0 -11 -22 -45 -50 -75 -58 -64 -63 -93 -25 -149 l24 -36
-34 0 -35 0 0 -125 0 -125 -27 -11 c-16 -5 -44 -18 -64 -29 l-37 -19 -73 94
c-42 54 -80 92 -87 90 -20 -7 -252 -197 -252 -207 0 -4 39 -56 86 -114 l87
-106 -19 -54 -18 -54 -148 0 -148 0 0 -170 0 -170 146 0 145 0 15 -35 c7 -19
14 -39 14 -44 0 -6 -42 -44 -94 -85 -52 -41 -97 -80 -101 -86 -5 -9 72 -113
176 -237 l27 -32 108 85 c58 46 110 84 113 84 3 0 39 -14 79 -32 l72 -32 0
-113 0 -113 185 0 185 0 0 118 0 119 59 25 59 26 89 -74 c48 -40 91 -73 94
-71 4 1 57 63 119 137 l113 135 -53 45 c-131 110 -124 102 -109 143 l13 37
128 0 128 0 0 180 0 180 -131 0 -130 0 -15 35 c-7 19 -14 38 -14 42 1 4 43 37
95 73 52 36 92 70 90 77 -11 33 -189 264 -199 260 -7 -3 -61 -39 -119 -81
l-107 -76 -52 24 c-29 14 -61 27 -70 30 -16 5 -18 20 -18 131 l0 125 -67 0
-67 0 26 28 c36 37 41 76 11 80 -17 3 -26 -3 -33 -22 -5 -14 -21 -32 -35 -42
-21 -14 -30 -15 -56 -4 -35 15 -54 52 -40 78 5 9 21 28 36 42 32 30 55 71 55
100 0 15 -6 20 -25 20 -18 0 -25 -5 -25 -20z m223 -640 c88 -33 156 -88 218
-174 72 -100 94 -171 93 -286 -2 -120 -26 -178 -116 -288 -75 -91 -117 -125
-199 -156 -38 -14 -71 -17 -180 -14 -129 3 -138 4 -201 36 -156 77 -268 257
-268 432 0 122 59 260 144 337 128 115 172 132 338 133 94 0 128 -4 171 -20z"/>
<path d="M3087 6150 c-100 -25 -221 -120 -266 -208 -115 -225 -23 -487 206
-594 62 -29 77 -32 168 -32 92 -1 105 2 167 31 89 42 141 85 187 154 145 216
61 511 -177 622 -57 27 -80 32 -157 34 -49 1 -107 -2 -128 -7z m257 -93 c273
-125 268 -517 -7 -642 -76 -35 -185 -37 -269 -5 -160 60 -256 244 -214 407 32
128 125 226 245 260 68 19 179 10 245 -20z"/>
<path d="M3004 5857 c-10 -28 1 -190 14 -195 8 -2 12 9 12 37 0 53 19 54 61 1
18 -22 38 -40 46 -40 22 0 15 14 -27 55 l-40 39 37 38 c24 24 32 38 22 38 -8
0 -30 -16 -49 -35 -19 -19 -38 -35 -42 -35 -4 0 -8 25 -8 55 0 51 -14 73 -26
42z"/>
<path d="M3208 5829 c-38 -22 -41 -118 -5 -141 20 -13 65 -9 81 8 15 14 16 13
16 -11 0 -37 -42 -55 -80 -33 -34 19 -47 12 -23 -14 26 -29 87 -24 112 8 17
22 21 41 21 105 0 64 -3 79 -15 79 -8 0 -15 -5 -15 -11 0 -5 -10 -3 -22 5 -26
18 -46 20 -70 5z m76 -35 c22 -21 20 -57 -3 -78 -25 -23 -52 -17 -69 14 -31
55 29 108 72 64z"/>
<path d="M2880 4273 l0 -106 -24 22 c-50 47 -162 47 -229 -1 -69 -49 -99 -194
-58 -283 20 -45 70 -92 107 -101 14 -4 52 -4 86 -2 51 4 65 9 84 31 29 33 34
34 34 2 0 -21 5 -25 30 -25 l30 0 0 285 0 285 -30 0 -30 0 0 -107z m-63 -119
c38 -24 57 -72 56 -147 -2 -105 -43 -156 -126 -157 -40 0 -53 5 -77 28 -45 46
-62 133 -39 203 29 86 113 119 186 73z"/>
<path d="M4977 4374 c-4 -4 -7 -125 -7 -269 0 -298 0 -297 71 -299 38 -1 44 2
47 20 2 16 -4 23 -22 28 l-26 6 -2 258 -3 257 -25 3 c-14 2 -29 0 -33 -4z"/>
<path d="M7757 4373 c-12 -11 -8 -497 4 -531 8 -25 18 -33 45 -38 19 -3 41 -4
49 0 23 8 18 40 -7 51 -23 10 -23 11 -26 268 l-2 257 -29 0 c-15 0 -31 -3 -34
-7z"/>
<path d="M9294 4367 c-3 -8 -4 -131 -2 -275 2 -188 6 -264 15 -273 7 -7 32
-13 55 -13 36 -1 43 2 46 19 2 13 -5 24 -20 30 -23 10 -23 10 -26 268 l-2 257
-30 0 c-17 0 -33 -6 -36 -13z"/>
<path d="M11427 4374 c-4 -4 -7 -53 -7 -108 0 -99 -1 -101 -18 -78 -22 28 -89
45 -140 36 -108 -20 -164 -95 -164 -221 0 -64 4 -80 29 -121 36 -59 80 -82
156 -82 62 0 91 11 119 44 l17 21 1 -27 c0 -25 4 -28 35 -28 l35 0 -2 283 -3
282 -25 3 c-14 2 -29 0 -33 -4z m-61 -221 c50 -32 71 -153 40 -227 -28 -67
-103 -95 -170 -64 -60 27 -87 168 -47 246 34 67 113 87 177 45z"/>
<path d="M4381 4336 c-7 -8 -11 -25 -9 -38 2 -18 9 -23 32 -23 36 0 56 27 40
53 -14 22 -48 27 -63 8z"/>
<path d="M5470 4343 c-87 -32 -120 -73 -120 -145 0 -49 25 -92 60 -103 28 -9
25 -17 -20 -44 -45 -28 -64 -66 -62 -124 4 -91 62 -127 207 -127 155 0 145 -9
145 131 l0 119 40 0 c36 0 40 3 40 24 0 21 -5 25 -37 28 -37 3 -38 4 -41 46
-3 39 -5 42 -32 42 -27 0 -29 -3 -32 -42 l-3 -43 -67 1 c-82 1 -114 19 -124
70 -16 84 45 132 153 121 54 -6 54 -6 51 21 -3 26 -5 27 -73 29 -38 1 -77 -1
-85 -4z m145 -393 l0 -95 -83 0 c-79 0 -85 1 -108 28 -46 54 -20 136 49 156
18 5 57 9 87 8 l55 -2 0 -95z"/>
<path d="M7570 4330 c-24 -44 38 -83 70 -45 10 12 10 21 2 40 -14 31 -56 34
-72 5z"/>
<path d="M1940 4075 l0 -265 30 0 30 0 0 265 0 265 -30 0 -30 0 0 -265z"/>
<path d="M6030 4075 l0 -265 30 0 29 0 3 113 3 112 83 0 c78 0 85 -2 107 -27
14 -17 25 -46 30 -80 3 -29 11 -68 16 -85 9 -29 15 -33 46 -33 30 0 34 3 28
18 -8 17 -19 70 -30 144 -3 21 -17 50 -30 66 l-24 29 30 22 c89 66 65 212 -39
241 -20 5 -92 10 -159 10 l-123 0 0 -265z m234 206 c21 -5 43 -14 48 -19 16
-16 25 -75 16 -109 -13 -49 -51 -64 -151 -61 l-82 3 -3 84 c-2 46 -1 90 2 98
6 15 109 18 170 4z"/>
<path d="M10460 4076 l0 -266 181 0 180 0 -3 23 c-3 21 -6 22 -145 25 l-143 3
-2 237 -3 237 -32 3 -33 3 0 -265z"/>
<path d="M3888 4263 c-3 -44 -5 -48 -30 -51 -22 -3 -28 -9 -28 -28 0 -20 5
-24 30 -24 l30 0 0 -160 c0 -148 2 -162 21 -181 16 -16 30 -19 67 -17 40 3 47
6 50 26 3 17 -2 22 -20 22 -50 0 -53 9 -56 165 l-3 145 40 0 c37 0 41 3 41 24
0 21 -5 25 -37 28 -38 3 -38 3 -41 51 -3 45 -5 47 -32 47 -27 0 -29 -2 -32
-47z"/>
<path d="M6928 4263 c-3 -44 -5 -48 -31 -51 -23 -3 -28 -8 -25 -25 2 -16 11
-23 31 -25 l27 -3 0 -160 c0 -147 2 -161 21 -180 16 -16 30 -19 67 -17 40 3
47 6 50 26 3 16 -2 22 -16 22 -51 0 -52 2 -52 161 l0 149 35 0 c31 0 35 3 35
25 0 22 -4 25 -34 25 -34 0 -35 1 -38 48 -3 45 -4 47 -35 50 -31 3 -32 3 -35
-45z"/>
<path d="M10898 4263 c-3 -44 -5 -48 -31 -51 -23 -3 -28 -8 -25 -25 2 -16 11
-23 31 -25 l27 -3 0 -160 c0 -147 2 -161 21 -180 16 -16 30 -19 67 -17 40 3
47 6 50 26 3 16 -2 22 -16 22 -51 0 -52 2 -52 161 l0 149 35 0 c31 0 35 3 35
25 0 22 -4 25 -34 25 -34 0 -35 1 -38 48 -3 45 -4 47 -35 50 -31 3 -32 3 -35
-45z"/>
<path d="M2263 4219 c-17 -5 -41 -21 -52 -35 l-20 -25 -3 28 c-3 24 -8 28 -33
28 l-30 0 -3 -202 -2 -203 35 0 35 0 0 118 c0 134 10 179 46 216 37 36 104 37
139 1 24 -24 25 -28 25 -180 l0 -155 36 0 35 0 -3 169 -3 170 -29 30 c-44 46
-105 60 -173 40z"/>
<path d="M3577 4216 c-21 -8 -40 -16 -41 -18 -26 -34 -36 -59 -36 -89 0 -55
37 -93 115 -119 81 -27 108 -48 108 -85 0 -36 -26 -55 -76 -55 -50 0 -71 12
-87 50 -10 23 -19 30 -41 30 -38 0 -43 -13 -23 -56 28 -59 65 -76 157 -72 75
3 80 5 108 36 23 26 29 42 29 78 0 60 -35 96 -116 119 -85 24 -104 39 -104 79
0 41 21 60 65 60 37 0 63 -17 76 -51 7 -18 16 -23 44 -23 33 0 36 2 30 23 -10
33 -33 65 -58 81 -34 22 -107 28 -150 12z"/>
<path d="M4256 4219 c-16 -5 -40 -21 -52 -36 l-23 -28 -1 33 c0 29 -3 32 -30
32 l-30 0 0 -205 0 -205 29 0 29 0 4 138 c3 87 10 147 18 165 15 31 56 57 90
57 14 0 20 6 20 24 0 29 -15 36 -54 25z"/>
<path d="M4650 4219 c-44 -13 -69 -35 -86 -76 -20 -47 -18 -53 19 -53 29 0 35
5 45 34 9 25 22 38 45 45 67 22 117 -15 117 -86 l0 -33 -57 0 c-132 -1 -210
-59 -200 -150 4 -33 13 -51 36 -72 28 -25 39 -28 102 -28 62 0 73 3 93 25 23
24 24 25 29 5 4 -15 13 -20 37 -20 l33 0 -5 163 c-6 177 -14 209 -60 233 -38
20 -106 25 -148 13z m140 -249 c0 -42 -24 -96 -48 -109 -26 -14 -87 -14 -112
-1 -23 12 -33 52 -20 84 13 36 56 55 123 56 57 0 57 0 57 -30z"/>
<path d="M6601 4220 c-101 -24 -164 -141 -141 -261 21 -111 67 -152 173 -157
62 -3 77 -1 106 20 38 25 66 61 76 96 6 20 3 22 -28 22 -29 0 -37 -5 -47 -30
-17 -42 -47 -60 -95 -60 -49 0 -83 22 -101 66 -31 74 -31 73 134 76 l147 3 -3
50 c-4 63 -39 134 -77 156 -38 22 -100 30 -144 19z m117 -73 c18 -17 42 -72
42 -99 0 -5 -52 -8 -116 -8 l-116 0 6 33 c9 45 37 80 77 94 41 14 76 7 107
-20z"/>
<path d="M7250 4219 c-41 -13 -67 -34 -86 -71 -23 -44 -18 -58 20 -58 29 0 34
4 40 30 8 44 64 67 115 48 31 -12 36 -19 43 -57 4 -24 5 -47 3 -51 -2 -4 -38
-10 -79 -13 -118 -9 -166 -43 -174 -127 -4 -46 -2 -52 31 -85 33 -33 39 -35
99 -34 76 1 96 7 114 40 l13 24 1 -27 c0 -25 4 -28 33 -28 l33 0 -4 163 c-4
177 -14 216 -59 236 -38 17 -103 22 -143 10z m140 -236 c-1 -43 -21 -99 -41
-115 -13 -11 -38 -18 -65 -18 -73 0 -106 54 -68 108 22 31 48 41 117 41 48 1
57 -2 57 -16z"/>
<path d="M8177 4216 c-52 -19 -65 -32 -77 -77 -17 -61 6 -104 72 -134 29 -14
60 -25 68 -25 8 0 30 -9 48 -20 24 -15 32 -27 32 -49 0 -41 -24 -61 -71 -61
-51 0 -75 13 -94 50 -12 23 -22 30 -45 30 -35 0 -38 -15 -15 -61 25 -47 70
-69 143 -69 100 0 152 38 152 112 0 58 -45 103 -131 128 -77 23 -104 50 -94
93 14 56 111 53 141 -4 11 -22 22 -29 44 -29 36 0 39 20 10 68 -31 51 -115 73
-183 48z"/>
<path d="M8581 4220 c-51 -12 -83 -41 -114 -101 -25 -47 -28 -63 -25 -124 4
-82 28 -136 72 -168 26 -18 44 -22 113 -22 77 0 83 2 113 30 32 30 60 75 60
95 0 5 -15 10 -34 10 -28 0 -36 -5 -46 -30 -17 -42 -47 -60 -96 -60 -55 0 -89
34 -105 105 -30 133 34 237 135 218 28 -6 76 -55 76 -79 0 -9 11 -14 35 -14
43 0 46 20 12 70 -40 61 -120 89 -196 70z"/>
<path d="M8985 4221 c-53 -13 -76 -32 -95 -74 -22 -48 -19 -57 20 -57 23 0 31
6 36 24 9 37 39 58 83 60 55 1 81 -25 81 -79 l0 -42 -72 -5 c-125 -8 -178 -49
-178 -138 0 -79 40 -110 140 -110 52 0 65 4 86 25 24 24 26 25 31 6 3 -10 12
-21 21 -23 40 -11 42 -1 41 155 0 165 -9 210 -49 238 -29 21 -102 31 -145 20z
m125 -267 c0 -63 -40 -104 -101 -104 -25 0 -50 7 -61 17 -18 16 -24 57 -12 88
10 25 62 44 122 45 l52 0 0 -46z"/>
<path d="M9625 4225 c-5 -2 -22 -6 -38 -9 -39 -9 -104 -71 -118 -113 -20 -63
-14 -166 13 -215 35 -65 77 -88 158 -88 73 0 115 20 151 70 31 44 29 65 -8 68
-28 3 -33 -1 -39 -23 -14 -57 -109 -87 -162 -49 -28 19 -52 65 -52 99 l0 25
145 0 145 0 0 50 c0 62 -18 106 -58 143 -34 33 -103 54 -137 42z m93 -80 c23
-21 45 -88 34 -99 -3 -4 -54 -6 -114 -6 -107 0 -108 0 -108 24 0 36 42 90 80
103 43 14 78 7 108 -22z"/>
<path d="M9980 4219 c-70 -20 -107 -97 -76 -158 18 -33 65 -62 134 -80 24 -7
52 -21 63 -32 43 -43 9 -99 -59 -99 -44 0 -68 14 -87 50 -12 23 -22 30 -45 30
-35 0 -38 -15 -15 -61 25 -47 70 -69 143 -69 75 0 115 18 138 62 19 37 13 91
-13 120 -22 25 -77 53 -120 62 -88 20 -113 97 -40 125 39 15 94 -8 103 -43 5
-22 12 -26 40 -26 39 0 43 14 19 60 -27 52 -113 80 -185 59z"/>
<path d="M3054 4205 c-11 -29 1 -318 15 -343 21 -39 70 -62 133 -62 65 0 105
15 113 42 9 28 25 22 25 -10 0 -26 3 -28 30 -24 l30 4 0 204 0 204 -29 0 -28
0 -6 -134 c-7 -184 -34 -236 -121 -236 -22 0 -45 9 -63 24 l-28 24 -5 159 -5
158 -28 3 c-18 2 -29 -2 -33 -13z"/>
<path d="M4380 4015 l0 -205 30 0 30 0 0 205 0 205 -30 0 -30 0 0 -205z"/>
<path d="M7577 4213 c-4 -3 -7 -96 -7 -205 l0 -198 35 0 35 0 0 205 0 205 -28
0 c-16 0 -32 -3 -35 -7z"/>
</g>
</svg>
